PathFileType	4	(X/Y/Z)	D:\Research_projects\MuscleProsody\BulkSports2Dtrack\RetrackedSports2D\p1_sample60_cam2\p1_sample60_cam2_Sports2D\p1_sample60_cam2_Sports2D_px_person00.trc
DataRate	CameraRate	NumFrames	NumMarkers	Units	OrigDataRate	OrigDataStartFrame	OrigNumFrames
60	60	9	22	m	60	390	780
Frame#	Time	Hip			RHip			RKnee			RAnkle			RBigToe			RSmallToe			RHeel			LHip			LKnee			LAnkle			LBigToe			LSmallToe			LHeel			Neck			Head			Nose			RShoulder			RElbow			RWrist			LShoulder			LElbow			LWrist		
		X1	Y1	Z1	X2	Y2	Z2	X3	Y3	Z3	X4	Y4	Z4	X5	Y5	Z5	X6	Y6	Z6	X7	Y7	Z7	X8	Y8	Z8	X9	Y9	Z9	X10	Y10	Z10	X11	Y11	Z11	X12	Y12	Z12	X13	Y13	Z13	X14	Y14	Z14	X15	Y15	Z15	X16	Y16	Z16	X17	Y17	Z17	X18	Y18	Z18	X19	Y19	Z19	X20	Y20	Z20	X21	Y21	Z21	X22	Y22	Z22
390	6.5	266.3002187395193	514.6999168021805	0.0	239.1063498441726	521.3780283722086	0.0	232.74469466059796	634.5839233127941	0.0	226.38317644672128	729.8936000577249	0.0	220.6023320083096	764.9631466897405	0.0	204.47643402459815	758.6110775989088	0.0	232.61724525741198	737.0831077685269	0.0	295.2168796574681	515.299003834876	0.0	284.02018903466876	634.2089304976561	0.0	272.05448535414274	732.2217331809748	0.0	264.45767644096526	768.8107403739945	0.0	283.48456123922205	765.2008095729386	0.0	268.7362093692273	739.8781278559575	0.0	218.0270817493939	357.3049841879781	0.0	182.8842636093063	283.06137408561864	0.0	191.19910765377077	333.1991550215328	0.0	179.65546133029142	399.6937337253862	0.0	132.8048828219394	469.7972564074095	0.0	55.23915642801267	507.4192663557738	0.0	277.20813537783636	346.0481168556799	0.0	352.776401838179	315.5166902091573	0.0	401.2859542557591	247.5150907484958	0.0
391	6.516666666666667	265.67226352430566	514.3435817194645	0.0	238.46763161013104	521.1350165850887	0.0	232.4461203249638	634.6302233571471	0.0	226.34798029023835	729.8086919568473	0.0	220.5610288736876	765.0093754601739	0.0	204.45244073965	758.6467422136354	0.0	232.54521595010598	737.027327952829	0.0	294.4860370562282	515.1268255379111	0.0	283.43180448661997	633.9711449701911	0.0	271.8842605798343	732.0790459023973	0.0	264.35535626599545	768.745154293907	0.0	283.4267971903265	765.0717549793611	0.0	268.59225751632385	739.8066911631289	0.0	217.06625665393685	356.9065862330024	0.0	181.83701638837914	282.60688139007027	0.0	190.0249138025329	332.7334608660967	0.0	178.87046057305932	399.45967427209683	0.0	133.2259152244235	470.30661145477666	0.0	56.128590541437326	508.3608583868523	0.0	276.25641360936294	345.96419951847486	0.0	352.7611518457465	317.40776986626315	0.0	402.7631905841877	250.3973869775272	0.0
392	6.533333333333333	264.81923157556935	513.9871673757646	0.0	237.60832485646304	520.8642736046135	0.0	231.8765741221794	634.6722429806252	0.0	226.1873202109561	729.752151397601	0.0	220.5296903198825	765.0771647093644	0.0	204.43006175146118	758.70781236814	0.0	232.3314190971317	736.9769289632133	0.0	293.5170962038427	514.9950653160491	0.0	282.70782048114097	633.7273610941702	0.0	271.6802556841688	731.956777667258	0.0	264.30090070050113	768.6685865319188	0.0	283.38035233101914	764.8943663320902	0.0	268.4271353207047	739.7372039201579	0.0	216.3469062213691	356.3019172124962	0.0	181.29702480116768	281.7591082250529	0.0	189.18364832333057	331.9815046409084	0.0	178.18801701045425	398.8156607571562	0.0	133.65304982505106	470.2386088908298	0.0	56.84782343692422	508.32826376418524	0.0	275.5733074972967	345.9342282328145	0.0	353.1474777120072	320.0293436251965	0.0	405.0927564201122	254.51978213534275	0.0
393	6.55	263.75583971701843	513.641677236146	0.0	236.54753081684402	520.5612039519323	0.0	231.0542258384345	634.6883845414147	0.0	225.90658533465262	729.7464744039205	0.0	220.51966054656816	765.1776562081087	0.0	204.41629778278818	758.8110694774729	0.0	231.9936806471093	736.9607892755865	0.0	292.337060154659	514.8916545771679	0.0	281.8657040385063	633.4737451761196	0.0	271.45021616172284	731.8449594841975	0.0	264.3037182437067	768.5735534863501	0.0	283.34685821905316	764.6704001510295	0.0	268.24442253658725	739.6627005232278	0.0	215.85758715474833	355.5035014557993	0.0	181.24466069092435	280.5409164522143	0.0	188.67808556469123	330.94592968630985	0.0	177.60856480113918	397.7998994291572	0.0	134.1390874382782	469.66051860945373	0.0	57.48495411520644	507.4325444265408	0.0	275.1488726385864	345.9714588749789	0.0	353.8089862158517	323.388408104189	0.0	408.0266298472181	259.9108715180007	0.0
394	6.566666666666666	262.50459066680946	513.3290667315589	0.0	235.31189051316542	520.2329930935281	0.0	230.01591793463928	634.6678772471269	0.0	225.51960754008135	729.7967743475616	0.0	220.53821053034343	765.3245237516669	0.0	204.41218479273218	758.9710948927611	0.0	231.5486736442595	736.9921007028157	0.0	290.9743300597033	514.8177355439824	0.0	280.9310593041925	633.2142290382693	0.0	271.19945118672445	731.7377062819355	0.0	264.364322895194	768.463038200956	0.0	283.3241414334346	764.414330782279	0.0	268.04305706524417	739.5808123214406	0.0	215.58901372625476	354.5258718890535	0.0	181.65064442279296	278.9909119586363	0.0	188.5078709386805	329.6334792122385	0.0	177.14118489558655	396.45913438086535	0.0	134.74043777561556	468.65007903130294	0.0	58.14602844577745	505.80076691422585	0.0	274.9660025702399	346.08455732211195	0.0	354.6056880707402	327.4801421881331	0.0	411.28850431347337	266.5848673536624	0.0
395	6.583333333333333	261.096611141618	513.0716610920491	0.0	233.9371750586105	519.8914315552067	0.0	228.81348702091515	634.6085252855903	0.0	225.04770494693236	729.8873881685302	0.0	220.59104791882763	765.5249583484975	0.0	204.41635306659788	759.192410363697	0.0	231.01385089804427	737.062329508462	0.0	289.4623581451884	514.7781665908426	0.0	279.93225538580043	632.95747989389	0.0	270.9330856442775	731.6353646239512	0.0	264.47989959058907	768.3483279178668	0.0	283.3120861758739	764.1495986879054	0.0	267.8241773628382	739.4933190240603	0.0	215.53460029050876	353.3856769933585	0.0	182.4758086385799	277.1598944612043	0.0	188.6690975368003	328.06214958081466	0.0	176.79865964848096	394.84855545870874	0.0	135.51337805554138	467.2912406239932	0.0	58.94575581721894	503.57211903067343	0.0	275.00266345205284	346.27753731820445	0.0	355.39537869947316	332.27834004937324	0.0	414.59852769042453	274.5236750944044	0.0
396	6.6	259.5708597846411	512.8827031182416	0.0	232.46714015464642	519.5440137907128	0.0	227.5080657475044	634.5114759904727	0.0	224.52070016557326	729.9922227325699	0.0	220.68106318294082	765.7713295528499	0.0	204.4284988736911	759.4637607416504	0.0	230.41715589488948	737.147391574717	0.0	287.8438425016655	514.7724141442644	0.0	278.8942650146702	632.71371411957	0.0	270.6582455180269	731.541223372916	0.0	264.6515017821792	768.2428155859907	0.0	283.3160013073607	763.90030478133	0.0	267.5961665489591	739.4038736815091	0.0	215.6873096885052	352.1048020679516	0.0	183.67197030143063	275.1097516476341	0.0	189.15153794833518	326.2705976382985	0.0	176.59156309037206	393.0315848959141	0.0	136.5130220136998	465.66769700697364	0.0	60.0103153330654	500.8919128655738	0.0	275.233339404281	346.55351560789137	0.0	356.03602479740965	337.7355603656097	0.0	417.6819073292973	283.67726106995786	0.0
397	6.616666666666666	257.97146673024304	512.7628806663688	0.0	230.9473782513521	519.1946476575843	0.0	226.1647822170019	634.380708497838	0.0	223.97505032301035	730.083560527859	0.0	220.80128786942575	766.0435742132748	0.0	204.44562314945588	759.7604292789778	0.0	229.79621618992945	737.2207169922671	0.0	286.1674937206129	514.7962257848158	0.0	277.8360748629772	632.494966679625	0.0	270.3841441150539	731.456909619092	0.0	264.87566910141203	768.1590358395264	0.0	283.33972120747825	763.6883560078751	0.0	267.37187234425124	739.3194487169853	0.0	216.03847198605007	350.7079640830969	0.0	185.18723310207713	272.90875573964485	0.0	189.93459912379788	324.3131528638641	0.0	176.5273458289886	391.0717428917047	0.0	137.78764364683573	463.85864354242756	0.0	61.477840327135986	497.9054798439707	0.0	275.6311319567799	346.9140764369974	0.0	356.3928679748443	343.7869204691018	0.0	420.27331605343755	293.97916020269025	0.0
398	6.633333333333333	256.34194199145486	512.7008154004685	0.0	229.41733990548778	518.8461823693308	0.0	224.84373846191545	634.2233577232325	0.0	223.44671002256	730.1350644536701	0.0	220.93492186532296	766.3165585034815	0.0	204.4610994513808	760.0531752461504	0.0	229.18915756808462	737.2627073231479	0.0	284.4807306231838	514.8452698288012	0.0	276.771107645089	632.3127866190083	0.0	270.1198620530391	731.3816121675602	0.0	265.13387423615615	768.105429669826	0.0	283.37750362909424	763.5312477094051	0.0	267.1624235987482	739.2518041596329	0.0	216.57830633510002	349.2189172556072	0.0	186.97176658356813	270.62393990063543	0.0	190.98871701888532	322.2456306386788	0.0	176.61149110630012	389.0232267349172	0.0	139.36880600952486	461.93685184891893	0.0	63.48230748531007	494.7581874514165	0.0	276.1701555637685	347.35867342871666	0.0	356.35268666503606	350.35257408816386	0.0	422.12951039976343	305.36126682091907	0.0
